<?xml version="1.0" encoding="UTF-8" standalone="no"?>
<!-- Created with Inkscape (http://www.inkscape.org/) -->

<svg
   xmlns:dc="http://purl.org/dc/elements/1.1/"
   xmlns:cc="http://creativecommons.org/ns#"
   xmlns:rdf="http://www.w3.org/1999/02/22-rdf-syntax-ns#"
   xmlns:svg="http://www.w3.org/2000/svg"
   xmlns="http://www.w3.org/2000/svg"
   xmlns:sodipodi="http://sodipodi.sourceforge.net/DTD/sodipodi-0.dtd"
   xmlns:inkscape="http://www.inkscape.org/namespaces/inkscape"
   version="1.1"
   id="svg8461"
   xml:space="preserve"
   width="479.53278"
   height="548.26837"
   viewBox="0 0 479.53278 548.26837"
   sodipodi:docname="preprint postprint published.svg"
   inkscape:version="0.92.4 (5da689c313, 2019-01-14)"><metadata
     id="metadata8467"><rdf:RDF><cc:Work
         rdf:about=""><dc:format>image/svg+xml</dc:format><dc:type
           rdf:resource="http://purl.org/dc/dcmitype/StillImage" /><dc:title></dc:title></cc:Work></rdf:RDF></metadata><defs
     id="defs8465"><clipPath
       clipPathUnits="userSpaceOnUse"
       id="clipPath8477"><path
         d="M 0,1.2207e-4 H 960 V 540.00012 H 0 Z"
         id="path8475"
         inkscape:connector-curvature="0"
         style="clip-rule:evenodd" /></clipPath><clipPath
       clipPathUnits="userSpaceOnUse"
       id="clipPath8493"><path
         d="M -9.419e-6,1.8311e-4 H 959.99999 V 540.00018 H -9.419e-6 Z"
         id="path8491"
         inkscape:connector-curvature="0"
         style="clip-rule:evenodd" /></clipPath><clipPath
       clipPathUnits="userSpaceOnUse"
       id="clipPath8507"><path
         d="M 1.4305e-5,0 H 960.00001 V 540 H 1.4305e-5 Z"
         id="path8505"
         inkscape:connector-curvature="0"
         style="clip-rule:evenodd" /></clipPath><clipPath
       clipPathUnits="userSpaceOnUse"
       id="clipPath8519"><path
         d="M 1.4305e-5,0 H 960.00001 V 540 H 1.4305e-5 Z"
         id="path8517"
         inkscape:connector-curvature="0"
         style="clip-rule:evenodd" /></clipPath><clipPath
       clipPathUnits="userSpaceOnUse"
       id="clipPath8533"><path
         d="M 1.4305e-5,0 H 960.00001 V 540 H 1.4305e-5 Z"
         id="path8531"
         inkscape:connector-curvature="0"
         style="clip-rule:evenodd" /></clipPath><clipPath
       clipPathUnits="userSpaceOnUse"
       id="clipPath8545"><path
         d="M 1.4305e-5,0 H 960.00001 V 540 H 1.4305e-5 Z"
         id="path8543"
         inkscape:connector-curvature="0"
         style="clip-rule:evenodd" /></clipPath><clipPath
       clipPathUnits="userSpaceOnUse"
       id="clipPath8557"><path
         d="M 1.4305e-5,0 H 960.00001 V 540 H 1.4305e-5 Z"
         id="path8555"
         inkscape:connector-curvature="0"
         style="clip-rule:evenodd" /></clipPath><clipPath
       clipPathUnits="userSpaceOnUse"
       id="clipPath8569"><path
         d="M 1.4305e-5,0 H 960.00001 V 540 H 1.4305e-5 Z"
         id="path8567"
         inkscape:connector-curvature="0"
         style="clip-rule:evenodd" /></clipPath><clipPath
       clipPathUnits="userSpaceOnUse"
       id="clipPath8581"><path
         d="M 1.4305e-5,0 H 960.00001 V 540 H 1.4305e-5 Z"
         id="path8579"
         inkscape:connector-curvature="0"
         style="clip-rule:evenodd" /></clipPath><clipPath
       clipPathUnits="userSpaceOnUse"
       id="clipPath8593"><path
         d="M 1.4305e-5,0 H 960.00001 V 540 H 1.4305e-5 Z"
         id="path8591"
         inkscape:connector-curvature="0"
         style="clip-rule:evenodd" /></clipPath><clipPath
       clipPathUnits="userSpaceOnUse"
       id="clipPath8605"><path
         d="M 1.4305e-5,0 H 960.00001 V 540 H 1.4305e-5 Z"
         id="path8603"
         inkscape:connector-curvature="0"
         style="clip-rule:evenodd" /></clipPath><clipPath
       clipPathUnits="userSpaceOnUse"
       id="clipPath8617"><path
         d="M 1.4305e-5,0 H 960.00001 V 540 H 1.4305e-5 Z"
         id="path8615"
         inkscape:connector-curvature="0"
         style="clip-rule:evenodd" /></clipPath><clipPath
       clipPathUnits="userSpaceOnUse"
       id="clipPath8629"><path
         d="M 1.4305e-5,0 H 960.00001 V 540 H 1.4305e-5 Z"
         id="path8627"
         inkscape:connector-curvature="0"
         style="clip-rule:evenodd" /></clipPath><clipPath
       clipPathUnits="userSpaceOnUse"
       id="clipPath8641"><path
         d="M 1.4305e-5,0 H 960.00001 V 540 H 1.4305e-5 Z"
         id="path8639"
         inkscape:connector-curvature="0"
         style="clip-rule:evenodd" /></clipPath><clipPath
       clipPathUnits="userSpaceOnUse"
       id="clipPath8659"><path
         d="M 1.4305e-5,0 H 960.00001 V 540 H 1.4305e-5 Z"
         id="path8657"
         inkscape:connector-curvature="0"
         style="clip-rule:evenodd" /></clipPath><clipPath
       clipPathUnits="userSpaceOnUse"
       id="clipPath8671"><path
         d="M 1.4305e-5,0 H 960.00001 V 540 H 1.4305e-5 Z"
         id="path8669"
         inkscape:connector-curvature="0"
         style="clip-rule:evenodd" /></clipPath><clipPath
       clipPathUnits="userSpaceOnUse"
       id="clipPath8683"><path
         d="M 1.4305e-5,0 H 960.00001 V 540 H 1.4305e-5 Z"
         id="path8681"
         inkscape:connector-curvature="0"
         style="clip-rule:evenodd" /></clipPath><clipPath
       clipPathUnits="userSpaceOnUse"
       id="clipPath8695"><path
         d="M 1.4305e-5,0 H 960.00001 V 540 H 1.4305e-5 Z"
         id="path8693"
         inkscape:connector-curvature="0"
         style="clip-rule:evenodd" /></clipPath><clipPath
       clipPathUnits="userSpaceOnUse"
       id="clipPath8707"><path
         d="M 1.4305e-5,0 H 960.00001 V 540 H 1.4305e-5 Z"
         id="path8705"
         inkscape:connector-curvature="0"
         style="clip-rule:evenodd" /></clipPath><clipPath
       clipPathUnits="userSpaceOnUse"
       id="clipPath8719"><path
         d="M 1.4305e-5,0 H 960.00001 V 540 H 1.4305e-5 Z"
         id="path8717"
         inkscape:connector-curvature="0"
         style="clip-rule:evenodd" /></clipPath><clipPath
       clipPathUnits="userSpaceOnUse"
       id="clipPath8731"><path
         d="M 1.4305e-5,0 H 960.00001 V 540 H 1.4305e-5 Z"
         id="path8729"
         inkscape:connector-curvature="0"
         style="clip-rule:evenodd" /></clipPath><clipPath
       clipPathUnits="userSpaceOnUse"
       id="clipPath8743"><path
         d="M 1.4305e-5,0 H 960.00001 V 540 H 1.4305e-5 Z"
         id="path8741"
         inkscape:connector-curvature="0"
         style="clip-rule:evenodd" /></clipPath><clipPath
       clipPathUnits="userSpaceOnUse"
       id="clipPath8755"><path
         d="M 1.4305e-5,0 H 960.00001 V 540 H 1.4305e-5 Z"
         id="path8753"
         inkscape:connector-curvature="0"
         style="clip-rule:evenodd" /></clipPath><clipPath
       clipPathUnits="userSpaceOnUse"
       id="clipPath8767"><path
         d="M 1.4305e-5,0 H 960.00001 V 540 H 1.4305e-5 Z"
         id="path8765"
         inkscape:connector-curvature="0"
         style="clip-rule:evenodd" /></clipPath><clipPath
       clipPathUnits="userSpaceOnUse"
       id="clipPath8779"><path
         d="M 1.4305e-5,0 H 960.00001 V 540 H 1.4305e-5 Z"
         id="path8777"
         inkscape:connector-curvature="0"
         style="clip-rule:evenodd" /></clipPath><clipPath
       clipPathUnits="userSpaceOnUse"
       id="clipPath8791"><path
         d="M 1.4305e-5,0 H 960.00001 V 540 H 1.4305e-5 Z"
         id="path8789"
         inkscape:connector-curvature="0"
         style="clip-rule:evenodd" /></clipPath><clipPath
       clipPathUnits="userSpaceOnUse"
       id="clipPath8803"><path
         d="M 1.4305e-5,0 H 960.00001 V 540 H 1.4305e-5 Z"
         id="path8801"
         inkscape:connector-curvature="0"
         style="clip-rule:evenodd" /></clipPath><clipPath
       clipPathUnits="userSpaceOnUse"
       id="clipPath8881"><path
         d="M 8.478e-6,540 H 960 V 0 L 6.8784e-5,6.1035e-5"
         id="path8879"
         inkscape:connector-curvature="0"
         style="clip-rule:evenodd" /></clipPath><clipPath
       clipPathUnits="userSpaceOnUse"
       id="clipPath8891"><path
         d="M 1.4305e-5,0 H 960.00001 V 540 H 1.4305e-5 Z"
         id="path8889"
         inkscape:connector-curvature="0"
         style="clip-rule:evenodd" /></clipPath><clipPath
       clipPathUnits="userSpaceOnUse"
       id="clipPath8903"><path
         d="M 1.4305e-5,0 H 960.00001 V 540 H 1.4305e-5 Z"
         id="path8901"
         inkscape:connector-curvature="0"
         style="clip-rule:evenodd" /></clipPath><clipPath
       clipPathUnits="userSpaceOnUse"
       id="clipPath8915"><path
         d="M 1.4305e-5,0 H 960.00001 V 540 H 1.4305e-5 Z"
         id="path8913"
         inkscape:connector-curvature="0"
         style="clip-rule:evenodd" /></clipPath><clipPath
       clipPathUnits="userSpaceOnUse"
       id="clipPath8927"><path
         d="M 1.4305e-5,0 H 960.00001 V 540 H 1.4305e-5 Z"
         id="path8925"
         inkscape:connector-curvature="0"
         style="clip-rule:evenodd" /></clipPath><clipPath
       clipPathUnits="userSpaceOnUse"
       id="clipPath8939"><path
         d="M 1.4305e-5,0 H 960.00001 V 540 H 1.4305e-5 Z"
         id="path8937"
         inkscape:connector-curvature="0"
         style="clip-rule:evenodd" /></clipPath><clipPath
       clipPathUnits="userSpaceOnUse"
       id="clipPath8951"><path
         d="M 1.4305e-5,0 H 960.00001 V 540 H 1.4305e-5 Z"
         id="path8949"
         inkscape:connector-curvature="0"
         style="clip-rule:evenodd" /></clipPath><clipPath
       clipPathUnits="userSpaceOnUse"
       id="clipPath8963"><path
         d="M 1.4305e-5,0 H 960.00001 V 540 H 1.4305e-5 Z"
         id="path8961"
         inkscape:connector-curvature="0"
         style="clip-rule:evenodd" /></clipPath><clipPath
       clipPathUnits="userSpaceOnUse"
       id="clipPath8975"><path
         d="M 1.4305e-5,0 H 960.00001 V 540 H 1.4305e-5 Z"
         id="path8973"
         inkscape:connector-curvature="0"
         style="clip-rule:evenodd" /></clipPath><clipPath
       clipPathUnits="userSpaceOnUse"
       id="clipPath8987"><path
         d="M 1.4305e-5,0 H 960.00001 V 540 H 1.4305e-5 Z"
         id="path8985"
         inkscape:connector-curvature="0"
         style="clip-rule:evenodd" /></clipPath></defs><sodipodi:namedview
     pagecolor="#ffffff"
     bordercolor="#666666"
     borderopacity="1"
     objecttolerance="10"
     gridtolerance="10"
     guidetolerance="10"
     inkscape:pageopacity="0"
     inkscape:pageshadow="2"
     inkscape:window-width="1858"
     inkscape:window-height="1057"
     id="namedview8463"
     showgrid="false"
     fit-margin-top="5"
     fit-margin-left="5"
     fit-margin-right="5"
     fit-margin-bottom="5"
     inkscape:zoom="0.90509668"
     inkscape:cx="48.468843"
     inkscape:cy="383.47401"
     inkscape:window-x="54"
     inkscape:window-y="-8"
     inkscape:window-maximized="1"
     inkscape:current-layer="g8469" /><g
     id="g8469"
     inkscape:groupmode="layer"
     inkscape:label="preprint postprint published"
     transform="matrix(1.3333333,0,0,-1.3333333,-96.901877,679.42837)"><path
       d="m 148.56,186.24 h 132.6 l 21.36,-42.06 -21.36,-42.06 h -132.6 z"
       style="fill:#ffe699;fill-opacity:1;fill-rule:evenodd;stroke:none"
       id="path8481"
       inkscape:connector-curvature="0" /><path
       d="M 148.56,326.52 H 281.93 L 302.52,284.46 281.93,242.4 H 148.56 Z"
       style="fill:#c5e0b4;fill-opacity:1;fill-rule:evenodd;stroke:none"
       id="path8483"
       inkscape:connector-curvature="0" /><path
       d="m 148.56,466.68 h 132.63 l 21.33,-42 -21.33,-42 H 148.56 Z"
       style="fill:#d9d9d9;fill-opacity:1;fill-rule:evenodd;stroke:none"
       id="path8485"
       inkscape:connector-curvature="0" /><path
       d="m 109.8,424.8 c 0,23.26 18.83,42.12 42.06,42.12 23.23,0 42.06,-18.86 42.06,-42.12 0,-23.26 -18.83,-42.12 -42.06,-42.12 -23.23,0 -42.06,18.86 -42.06,42.12 z"
       style="fill:#7f7f7f;fill-opacity:1;fill-rule:evenodd;stroke:none"
       id="path8499"
       inkscape:connector-curvature="0" /><g
       id="g8501"><g
         id="g8503"
         clip-path="url(#clipPath8507)"><text
           transform="matrix(1,0,0,-1,198.24,432.36)"
           style="font-variant:normal;font-weight:normal;font-size:18px;font-family:Calibri;-inkscape-font-specification:Calibri;writing-mode:lr-tb;fill:#000000;fill-opacity:1;fill-rule:nonzero;stroke:none"
           id="text8511"><tspan
             x="0 9.2340002 15.228 24.191999 33.695999 39.978001 44.009998 53.369999"
             y="0"
             sodipodi:role="line"
             id="tspan8509">Preprint</tspan></text>
</g></g><g
       id="g8513"><g
         id="g8515"
         clip-path="url(#clipPath8519)"><text
           transform="matrix(1,0,0,-1,199.34,295.8)"
           style="font-variant:normal;font-weight:normal;font-size:18px;font-family:Calibri;-inkscape-font-specification:Calibri;writing-mode:lr-tb;fill:#000000;fill-opacity:1;fill-rule:nonzero;stroke:none"
           id="text8523"><tspan
             x="0 8.8739996 18.360001 25.200001 31.23 40.68 46.962002 50.993999 60.354"
             y="0"
             sodipodi:role="line"
             id="tspan8521">Postprint</tspan></text>
<text
           xml:space="preserve"
           style="font-style:normal;font-variant:normal;font-weight:normal;font-stretch:normal;font-size:15px;line-height:1.25;font-family:sans-serif;-inkscape-font-specification:'sans-serif, Normal';font-variant-ligatures:normal;font-variant-caps:normal;font-variant-numeric:normal;font-feature-settings:normal;text-align:center;letter-spacing:0px;word-spacing:0px;writing-mode:lr-tb;text-anchor:middle;fill:#000000;fill-opacity:1;stroke:none;stroke-width:0.75"
           x="482.04993"
           y="-320.50732"
           id="text13472"
           transform="scale(1,-1)"><tspan
             sodipodi:role="line"
             id="tspan13470"
             x="482.04993"
             y="-306.82236"
             style="stroke-width:0.75"></tspan></text>
</g></g><path
       d="m 109.8,284.46 c 0,23.23 18.83,42.06 42.06,42.06 23.23,0 42.06,-18.83 42.06,-42.06 0,-23.23 -18.83,-42.06 -42.06,-42.06 -23.23,0 -42.06,18.83 -42.06,42.06 z"
       style="fill:#008300;fill-opacity:1;fill-rule:evenodd;stroke:none"
       id="path8525"
       inkscape:connector-curvature="0" /><g
       id="g8527"><g
         id="g8529"
         clip-path="url(#clipPath8533)"><text
           transform="matrix(1,0,0,-1,198.24,159.79)"
           style="font-variant:normal;font-weight:normal;font-size:18px;font-family:Calibri;-inkscape-font-specification:Calibri;writing-mode:lr-tb;fill:#000000;fill-opacity:1;fill-rule:nonzero;stroke:none"
           id="text8537"><tspan
             x="0 9.2340002 18.684 28.17 32.256001 36.341999 43.380001 52.883999 61.848"
             y="0"
             sodipodi:role="line"
             id="tspan8535">Published</tspan></text>
</g></g><g
       id="g8539"><g
         id="g8541"
         clip-path="url(#clipPath8545)"><text
           transform="matrix(1,0,0,-1,199.34,279.96)"
           style="font-variant:normal;font-weight:normal;font-size:12px;font-family:Calibri;-inkscape-font-specification:Calibri;writing-mode:lr-tb;fill:#000000;fill-opacity:1;fill-rule:nonzero;stroke:none"
           id="text8549"><tspan
             x="0 6.948 13.308 17.375999 23.724001 30.048"
             y="0"
             sodipodi:role="line"
             id="tspan8547">Author</tspan></text>
</g></g><g
       id="g8551"><g
         id="g8553"
         clip-path="url(#clipPath8557)"><text
           transform="matrix(1,0,0,-1,233.66,279.96)"
           style="font-variant:normal;font-weight:normal;font-size:12px;font-family:Calibri;-inkscape-font-specification:Calibri;writing-mode:lr-tb;fill:#000000;fill-opacity:1;fill-rule:nonzero;stroke:none"
           id="text8561"><tspan
             x="0"
             y="0"
             id="tspan8559">-</tspan></text>
</g></g><g
       id="g8563"><g
         id="g8565"
         clip-path="url(#clipPath8569)"><text
           transform="matrix(1,0,0,-1,237.38,279.96)"
           style="font-variant:normal;font-weight:normal;font-size:12px;font-family:Calibri;-inkscape-font-specification:Calibri;writing-mode:lr-tb;fill:#000000;fill-opacity:1;fill-rule:nonzero;stroke:none"
           id="text8573"><tspan
             x="0 5.6399999 10.68 15.72 21.695999 28.068001 32.028 38.004002"
             y="0"
             sodipodi:role="line"
             id="tspan8571">accepted</tspan></text>
</g></g><g
       id="g8575"><g
         id="g8577"
         clip-path="url(#clipPath8581)"><text
           transform="matrix(1,0,0,-1,199.34,265.56)"
           style="font-variant:normal;font-weight:normal;font-size:12px;font-family:Calibri;-inkscape-font-specification:Calibri;writing-mode:lr-tb;fill:#000000;fill-opacity:1;fill-rule:nonzero;stroke:none"
           id="text8585"><tspan
             x="0 9.5880003 15.336 21.708 28.056 32.748001 37.776001 41.964001 44.723999 51.084 55.152 57.551998 61.188 68.136002 75.084 85.379997"
             y="0"
             sodipodi:role="line"
             id="tspan8583">manuscript (AAM)</tspan></text>
</g></g><g
       id="g8587"><g
         id="g8589"
         clip-path="url(#clipPath8593)"><text
           transform="matrix(1,0,0,-1,111.7,368.35)"
           style="font-variant:normal;font-weight:normal;font-size:12px;font-family:Calibri;-inkscape-font-specification:Calibri;writing-mode:lr-tb;fill:#000000;fill-opacity:1;fill-rule:nonzero;stroke:none"
           id="text8597"><tspan
             x="0 5.5079999 11.868 18.216 27.804001 30.563999 34.535999 38.375999 44.352001 50.616001 53.015999 56.976002 63.299999 66.084 68.952003 75.311996 81.660004 85.848 92.208 97.956001"
             y="0"
             sodipodi:role="line"
             id="tspan8595">Submitted to journal</tspan></text>
</g></g><g
       id="g8599"><g
         id="g8601"
         clip-path="url(#clipPath8605)"><text
           transform="matrix(1,0,0,-1,111.7,353.95)"
           style="font-variant:normal;font-weight:normal;font-size:12px;font-family:Calibri;-inkscape-font-specification:Calibri;writing-mode:lr-tb;fill:#000000;fill-opacity:1;fill-rule:nonzero;stroke:none"
           id="text8609"><tspan
             x="0 6 11.976 17.988001 22.176001 24.827999 28.908001 34.883999 40.307999 43.068001 49.043999"
             y="0"
             sodipodi:role="line"
             id="tspan8607">Peer review</tspan></text>
</g></g><g
       id="g8611"><g
         id="g8613"
         clip-path="url(#clipPath8617)"><text
           transform="matrix(1,0,0,-1,111.7,339.55)"
           style="font-variant:normal;font-weight:normal;font-size:12px;font-family:Calibri;-inkscape-font-specification:Calibri;writing-mode:lr-tb;fill:#000000;fill-opacity:1;fill-rule:nonzero;stroke:none"
           id="text8621"><tspan
             x="0 6.948 13.308 17.375999 23.724001 30.048 34.271999 36.672001 41.591999 47.916 52.139999 56.220001 62.195999 67.272003 71.328003 74.087997 80.412003 86.795998"
             y="0"
             sodipodi:role="line"
             id="tspan8619">Author corrections</tspan></text>
</g></g><g
       id="g8623"><g
         id="g8625"
         clip-path="url(#clipPath8629)"><text
           transform="matrix(1,0,0,-1,162.41,493.7)"
           style="font-variant:normal;font-weight:normal;font-size:12px;font-family:Calibri;-inkscape-font-specification:Calibri;writing-mode:lr-tb;fill:#000000;fill-opacity:1;fill-rule:nonzero;stroke:none"
           id="text8633"><tspan
             x="0 6.2399998 12.564 18.948 25.296 31.643999 36.335999 38.844002 45.167999 48.911999 51.551998 57.900002 61.860001 67.5 71.208 75.276001 78.036003 84.384003"
             y="0"
             sodipodi:role="line"
             id="tspan8631">Rounds of drafting</tspan></text>
</g></g><g
       id="g8635"><g
         id="g8637"
         clip-path="url(#clipPath8641)"><text
           transform="matrix(1,0,0,-1,162.41,479.3)"
           style="font-variant:normal;font-weight:normal;font-size:12px;font-family:Calibri;-inkscape-font-specification:Calibri;writing-mode:lr-tb;fill:#000000;fill-opacity:1;fill-rule:nonzero;stroke:none"
           id="text8645"><tspan
             x="0 8.184 10.896 13.656 19.92 23.4 29.724001 33.948002 43.535999 49.284 52.043999 54.588001 58.068001 64.043999 70.056 76.403999 82.643997 88.391998 93.468002"
             y="0"
             sodipodi:role="line"
             id="tspan8643">&amp; informal feedback</tspan></text>
</g></g><path
       d="m 153.29,453.34 c 7.24,20.51 -3.54,43 -24.07,50.23 -20.54,7.23 -43.062,-3.53 -50.305,-24.03 -6.428,-18.2 1.298,-38.37 18.248,-47.63 v 0 l 10.477,6.42 -4.43,13.67 v 0 c -7.998,7.1 -8.712,19.31 -1.59,27.29 7.11,7.97 19.37,8.69 27.37,1.59 5.88,-5.22 8.01,-13.47 5.39,-20.88 z"
       style="fill:#7f7f7f;fill-opacity:1;fill-rule:evenodd;stroke:none"
       id="path8647"
       inkscape:connector-curvature="0" /><path
       d="M 115.33,428.67 C 78.734,408.88 65.635,364.1 86.074,328.66 c 4.423,-7.67 10.229,-14.51 17.146,-20.19 v 0 l 12.66,4.22 -0.06,13.69 v 0 c -22.027,19.28 -23.536,51.97 -3.37,73.02 3.98,4.15 8.63,7.65 13.79,10.36 z"
       style="fill:#7f7f7f;fill-opacity:1;fill-rule:evenodd;stroke:none"
       id="path8649"
       inkscape:connector-curvature="0" /><path
       d="m 109.8,144.18 c 0,23.23 18.83,42.06 42.06,42.06 23.23,0 42.06,-18.83 42.06,-42.06 0,-23.23 -18.83,-42.06 -42.06,-42.06 -23.23,0 -42.06,18.83 -42.06,42.06 z"
       style="fill:#ef7b0b;fill-opacity:1;fill-rule:evenodd;stroke:none"
       id="path8651"
       inkscape:connector-curvature="0" /><g
       id="g8653"><g
         id="g8655"
         clip-path="url(#clipPath8659)"><text
           transform="matrix(1,0,0,-1,198.24,145.27)"
           style="font-variant:normal;font-weight:normal;font-size:12px;font-family:Calibri;-inkscape-font-specification:Calibri;writing-mode:lr-tb;fill:#000000;fill-opacity:1;fill-rule:nonzero;stroke:none"
           id="text8663"><tspan
             x="0 6.2399998 12.216 16.200001 20.892 23.652 29.976 36.348 38.987999 45.312 49.056 51.695999 55.776001 61.751999 66.695999 73.019997 77.136002"
             y="0"
             sodipodi:role="line"
             id="tspan8661">Version of record</tspan></text>
</g></g><g
       id="g8665"><g
         id="g8667"
         clip-path="url(#clipPath8671)"><text
           transform="matrix(1,0,0,-1,198.24,130.87)"
           style="font-variant:normal;font-weight:normal;font-size:12px;font-family:Calibri;-inkscape-font-specification:Calibri;writing-mode:lr-tb;fill:#000000;fill-opacity:1;fill-rule:nonzero;stroke:none"
           id="text8675"><tspan
             x="0 6.204 13.668 19.176001 21.827999 26.496 29.243999 36.683998 42.528 52.872002 57.911999 60.551998 65.220001 67.968002 74.195999 84.515999"
             y="0"
             sodipodi:role="line"
             id="tspan8673">PDF / HTML / XML</tspan></text>
</g></g><g
       id="g8677"><g
         id="g8679"
         clip-path="url(#clipPath8683)"><text
           transform="matrix(1,0,0,-1,198.24,116.47)"
           style="font-variant:normal;font-weight:normal;font-size:12px;font-family:Calibri;-inkscape-font-specification:Calibri;writing-mode:lr-tb;fill:#000000;fill-opacity:1;fill-rule:nonzero;stroke:none"
           id="text8687"><tspan
             x="0 7.428 15.372 18.348 21.096001 24.804001 28.764 35.088001 44.712002 47.352001 50.220001 56.580002 62.928001 67.115997 73.475998 79.223999"
             y="0"
             sodipodi:role="line"
             id="tspan8685">DOI from journal</tspan></text>
</g></g><g
       id="g8689"><g
         id="g8691"
         clip-path="url(#clipPath8695)"><text
           transform="matrix(1,0,0,-1,111.7,227.35)"
           style="font-variant:normal;font-weight:normal;font-size:12px;font-family:Calibri;-inkscape-font-specification:Calibri;writing-mode:lr-tb;fill:#000000;fill-opacity:1;fill-rule:nonzero;stroke:none"
           id="text8699"><tspan
             x="0 6.3600001 12.684 19.068001"
             y="0"
             sodipodi:role="line"
             id="tspan8697">Copy</tspan></text>
</g></g><g
       id="g8701"><g
         id="g8703"
         clip-path="url(#clipPath8707)"><text
           transform="matrix(1,0,0,-1,136.2,227.35)"
           style="font-variant:normal;font-weight:normal;font-size:12px;font-family:Calibri;-inkscape-font-specification:Calibri;writing-mode:lr-tb;fill:#000000;fill-opacity:1;fill-rule:nonzero;stroke:none"
           id="text8711"><tspan
             x="0"
             y="0"
             id="tspan8709">-</tspan></text>
</g></g><g
       id="g8713"><g
         id="g8715"
         clip-path="url(#clipPath8719)"><text
           transform="matrix(1,0,0,-1,139.92,227.35)"
           style="font-variant:normal;font-weight:normal;font-size:12px;font-family:Calibri;-inkscape-font-specification:Calibri;writing-mode:lr-tb;fill:#000000;fill-opacity:1;fill-rule:nonzero;stroke:none"
           id="text8723"><tspan
             x="0 5.9759998 12.348 15.108 18.948 24.924"
             y="0"
             sodipodi:role="line"
             id="tspan8721">edited</tspan></text>
</g></g><g
       id="g8725"><g
         id="g8727"
         clip-path="url(#clipPath8731)"><text
           transform="matrix(1,0,0,-1,111.7,212.95)"
           style="font-variant:normal;font-weight:normal;font-size:12px;font-family:Calibri;-inkscape-font-specification:Calibri;writing-mode:lr-tb;fill:#000000;fill-opacity:1;fill-rule:nonzero;stroke:none"
           id="text8735"><tspan
             x="0 5.2800002 10.716 17.016001 23.028 27.719999 33.588001"
             y="0"
             sodipodi:role="line"
             id="tspan8733">Typeset</tspan></text>
</g></g><g
       id="g8737"><g
         id="g8739"
         clip-path="url(#clipPath8743)"><text
           transform="matrix(1,0,0,-1,111.7,198.55)"
           style="font-variant:normal;font-weight:normal;font-size:12px;font-family:Calibri;-inkscape-font-specification:Calibri;writing-mode:lr-tb;fill:#000000;fill-opacity:1;fill-rule:nonzero;stroke:none"
           id="text8747"><tspan
             x="0 5.4000001 11.724 15.948 25.535999 31.188 35.147999 39.108002 45.084"
             y="0"
             sodipodi:role="line"
             id="tspan8745">Formatted</tspan></text>
</g></g><g
       id="g8749"><g
         id="g8751"
         clip-path="url(#clipPath8755)"><text
           transform="matrix(1,0,0,-1,309.62,315.38)"
           style="font-variant:normal;font-weight:normal;font-size:12px;font-family:Calibri;-inkscape-font-specification:Calibri;writing-mode:lr-tb;fill:#000000;fill-opacity:1;fill-rule:nonzero;stroke:none"
           id="text8759"><tspan
             x="0 6.3600001 12.108 18.468 21.108 26.856001 29.615999 38.028 43.548 48.827999 53.52 56.375999 62.723999 68.699997 71.363998 76.056 82.391998 88.139999 92.232002 98.208 104.58 107.1 109.86 116.208"
             y="0"
             sodipodi:role="line"
             id="tspan8757">Can always be shared in </tspan></text>
</g></g><g
       id="g8761"><g
         id="g8763"
         clip-path="url(#clipPath8767)"><text
           transform="matrix(1,0,0,-1,309.62,300.98)"
           style="font-variant:normal;font-weight:normal;font-size:12px;font-family:Calibri;-inkscape-font-specification:Calibri;writing-mode:lr-tb;fill:#000000;fill-opacity:1;fill-rule:nonzero;stroke:none"
           id="text8771"><tspan
             x="0 5.7480001 8.5080004 14.16 18.228001 24.204 30.216 36.563999 39.084 46.883999 53.832001 56.712002 60.792 66.767998 73.139999 79.463997 84.155998 86.916 90.900002 97.223999 101.448 106.884"
             y="0"
             sodipodi:role="line"
             id="tspan8769">a green OA repository </tspan></text>
</g></g><g
       id="g8773"><g
         id="g8775"
         clip-path="url(#clipPath8779)"><text
           transform="matrix(1,0,0,-1,309.62,286.58)"
           style="font-variant:normal;font-weight:normal;font-size:12px;font-family:Calibri;-inkscape-font-specification:Calibri;writing-mode:lr-tb;fill:#000000;fill-opacity:1;fill-rule:nonzero;stroke:none"
           id="text8783"><tspan
             x="0 5.6399999 9.3479996 13.308 19.284 23.496 26.016001 31.764 36.84 41.855999 47.832001 54.203999 58.164001 64.139999 70.512001 73.031998 79.379997 84.816002"
             y="0"
             sodipodi:role="line"
             id="tspan8781">after accepted by </tspan></text>
</g></g><g
       id="g8785"><g
         id="g8787"
         clip-path="url(#clipPath8791)"><text
           transform="matrix(1,0,0,-1,309.62,272.18)"
           style="font-variant:normal;font-weight:normal;font-size:12px;font-family:Calibri;-inkscape-font-specification:Calibri;writing-mode:lr-tb;fill:#000000;fill-opacity:1;fill-rule:nonzero;stroke:none"
           id="text8795"><tspan
             x="0 2.868 9.2279997 15.576 19.764 26.124001 31.872 34.632 37.043999 40.68 45.324001 51.647999 61.271999 67.152 71.220001 73.980003 83.568001 89.543999 94.236"
             y="0"
             sodipodi:role="line"
             id="tspan8793">journal (sometimes </tspan></text>
</g></g><g
       id="g8797"><g
         id="g8799"
         clip-path="url(#clipPath8803)"><text
           transform="matrix(1,0,0,-1,309.62,257.76)"
           style="font-variant:normal;font-weight:normal;font-size:12px;font-family:Calibri;-inkscape-font-specification:Calibri;writing-mode:lr-tb;fill:#000000;fill-opacity:1;fill-rule:nonzero;stroke:none"
           id="text8807"><tspan
             x="0 5.6399999 9.3479996 13.308 19.284 23.496 26.016001 31.992001 41.580002 47.964001 53.712002 57.804001 63.324001 69.648003"
             y="0"
             sodipodi:role="line"
             id="tspan8805">after embargo)</tspan></text>
</g></g><path
       d="M 170.1,296.76 V 255.9 h -38.28 v 51.5 l 27.74,0.1"
       style="fill:none;stroke:#ffffff;stroke-width:2.51999998;stroke-linecap:round;stroke-linejoin:round;stroke-miterlimit:10;stroke-dasharray:none;stroke-opacity:1"
       id="path8809"
       inkscape:connector-curvature="0" /><path
       d="m 139.5,282.9 h 22.83"
       style="fill:none;stroke:#ffffff;stroke-width:2.51999998;stroke-linecap:round;stroke-linejoin:round;stroke-miterlimit:10;stroke-dasharray:none;stroke-opacity:1"
       id="path8811"
       inkscape:connector-curvature="0" /><path
       d="m 139.5,277.98 h 22.83"
       style="fill:none;stroke:#ffffff;stroke-width:2.51999998;stroke-linecap:round;stroke-linejoin:round;stroke-miterlimit:10;stroke-dasharray:none;stroke-opacity:1"
       id="path8813"
       inkscape:connector-curvature="0" /><path
       d="m 139.5,273.06 h 22.83"
       style="fill:none;stroke:#ffffff;stroke-width:2.51999998;stroke-linecap:round;stroke-linejoin:round;stroke-miterlimit:10;stroke-dasharray:none;stroke-opacity:1"
       id="path8815"
       inkscape:connector-curvature="0" /><path
       d="m 139.5,268.14 h 22.83"
       style="fill:none;stroke:#ffffff;stroke-width:2.51999998;stroke-linecap:round;stroke-linejoin:round;stroke-miterlimit:10;stroke-dasharray:none;stroke-opacity:1"
       id="path8817"
       inkscape:connector-curvature="0" /><path
       d="m 139.5,263.1 h 22.83"
       style="fill:none;stroke:#ffffff;stroke-width:2.51999998;stroke-linecap:round;stroke-linejoin:round;stroke-miterlimit:10;stroke-dasharray:none;stroke-opacity:1"
       id="path8819"
       inkscape:connector-curvature="0" /><path
       d="m 139.5,287.94 h 22.83"
       style="fill:none;stroke:#ffffff;stroke-width:2.51999998;stroke-linecap:round;stroke-linejoin:round;stroke-miterlimit:10;stroke-dasharray:none;stroke-opacity:1"
       id="path8821"
       inkscape:connector-curvature="0" /><path
       d="m 139.5,292.86 h 22.83"
       style="fill:none;stroke:#ffffff;stroke-width:2.51999998;stroke-linecap:round;stroke-linejoin:round;stroke-miterlimit:10;stroke-dasharray:none;stroke-opacity:1"
       id="path8823"
       inkscape:connector-curvature="0" /><path
       d="m 176.2,304.92 c -0.05,-2.6 0.06,-5.38 0,-7.98 h -16.18 v 15.84 l 13.85,-0.07"
       style="fill:none;stroke:#ffffff;stroke-width:2.51999998;stroke-linecap:round;stroke-linejoin:round;stroke-miterlimit:10;stroke-dasharray:none;stroke-opacity:1"
       id="path8825"
       inkscape:connector-curvature="0" /><path
       d="m 164.58,305.58 3.94,-4.12"
       style="fill:none;stroke:#ffffff;stroke-width:2.51999998;stroke-linecap:round;stroke-linejoin:round;stroke-miterlimit:10;stroke-dasharray:none;stroke-opacity:1"
       id="path8827"
       inkscape:connector-curvature="0" /><path
       d="m 168.42,301.31 10.39,11.83"
       style="fill:none;stroke:#ffffff;stroke-width:2.51999998;stroke-linecap:round;stroke-linejoin:round;stroke-miterlimit:10;stroke-dasharray:none;stroke-opacity:1"
       id="path8829"
       inkscape:connector-curvature="0" /><path
       d="m 170.1,154.95 v -40.77 h -38.28 v 51.38 l 27.74,0.1"
       style="fill:none;stroke:#ffffff;stroke-width:2.51999998;stroke-linecap:round;stroke-linejoin:round;stroke-miterlimit:10;stroke-dasharray:none;stroke-opacity:1"
       id="path8831"
       inkscape:connector-curvature="0" /><path
       d="m 138.54,155.1 h 37.71"
       style="fill:none;stroke:#ffffff;stroke-width:2.51999998;stroke-linecap:round;stroke-linejoin:round;stroke-miterlimit:10;stroke-dasharray:none;stroke-opacity:1"
       id="path8833"
       inkscape:connector-curvature="0" /><path
       d="m 176.2,163.08 c -0.05,-2.6 0.06,-5.38 0,-7.98 h -16.18 v 15.84 l 13.85,-0.07"
       style="fill:none;stroke:#ffffff;stroke-width:2.51999998;stroke-linecap:round;stroke-linejoin:round;stroke-miterlimit:10;stroke-dasharray:none;stroke-opacity:1"
       id="path8835"
       inkscape:connector-curvature="0" /><path
       d="m 164.58,163.86 3.94,-4.12"
       style="fill:none;stroke:#ffffff;stroke-width:2.51999998;stroke-linecap:round;stroke-linejoin:round;stroke-miterlimit:10;stroke-dasharray:none;stroke-opacity:1"
       id="path8837"
       inkscape:connector-curvature="0" /><path
       d="m 168.42,159.59 10.39,11.83"
       style="fill:none;stroke:#ffffff;stroke-width:2.51999998;stroke-linecap:round;stroke-linejoin:round;stroke-miterlimit:10;stroke-dasharray:none;stroke-opacity:1"
       id="path8839"
       inkscape:connector-curvature="0" /><path
       d="m 138.54,140.34 h 10.1"
       style="fill:none;stroke:#ffffff;stroke-width:2.51999998;stroke-linecap:round;stroke-linejoin:round;stroke-miterlimit:10;stroke-dasharray:none;stroke-opacity:1"
       id="path8841"
       inkscape:connector-curvature="0" /><path
       d="m 138.54,135.42 h 10.1"
       style="fill:none;stroke:#ffffff;stroke-width:2.51999998;stroke-linecap:round;stroke-linejoin:round;stroke-miterlimit:10;stroke-dasharray:none;stroke-opacity:1"
       id="path8843"
       inkscape:connector-curvature="0" /><path
       d="m 138.54,130.5 h 10.1"
       style="fill:none;stroke:#ffffff;stroke-width:2.51999998;stroke-linecap:round;stroke-linejoin:round;stroke-miterlimit:10;stroke-dasharray:none;stroke-opacity:1"
       id="path8845"
       inkscape:connector-curvature="0" /><path
       d="m 138.54,125.7 h 10.1"
       style="fill:none;stroke:#ffffff;stroke-width:2.51999998;stroke-linecap:round;stroke-linejoin:round;stroke-miterlimit:10;stroke-dasharray:none;stroke-opacity:1"
       id="path8847"
       inkscape:connector-curvature="0" /><path
       d="m 138.54,120.78 h 10.1"
       style="fill:none;stroke:#ffffff;stroke-width:2.51999998;stroke-linecap:round;stroke-linejoin:round;stroke-miterlimit:10;stroke-dasharray:none;stroke-opacity:1"
       id="path8849"
       inkscape:connector-curvature="0" /><path
       d="m 138.54,150.06 h 25.18"
       style="fill:none;stroke:#ffffff;stroke-width:2.51999998;stroke-linecap:round;stroke-linejoin:round;stroke-miterlimit:10;stroke-dasharray:none;stroke-opacity:1"
       id="path8851"
       inkscape:connector-curvature="0" /><path
       d="m 153.54,140.34 h 10.1"
       style="fill:none;stroke:#ffffff;stroke-width:2.51999998;stroke-linecap:round;stroke-linejoin:round;stroke-miterlimit:10;stroke-dasharray:none;stroke-opacity:1"
       id="path8853"
       inkscape:connector-curvature="0" /><path
       d="m 153.54,135.42 h 10.1"
       style="fill:none;stroke:#ffffff;stroke-width:2.51999998;stroke-linecap:round;stroke-linejoin:round;stroke-miterlimit:10;stroke-dasharray:none;stroke-opacity:1"
       id="path8855"
       inkscape:connector-curvature="0" /><path
       d="m 153.54,120.18 h 9.96 v 9.24 h -9.96 z"
       style="fill:none;stroke:#ffffff;stroke-width:2.51999998;stroke-linecap:round;stroke-linejoin:round;stroke-miterlimit:10;stroke-dasharray:none;stroke-opacity:1"
       id="path8857"
       inkscape:connector-curvature="0" /><path
       d="m 170.1,436.32 v -40.86 h -38.28 v 51.5 l 27.74,0.1"
       style="fill:none;stroke:#ffffff;stroke-width:2.51999998;stroke-linecap:round;stroke-linejoin:round;stroke-miterlimit:10;stroke-dasharray:none;stroke-opacity:1"
       id="path8859"
       inkscape:connector-curvature="0" /><path
       d="m 139.5,422.46 h 22.83"
       style="fill:none;stroke:#ffffff;stroke-width:2.51999998;stroke-linecap:round;stroke-linejoin:round;stroke-miterlimit:10;stroke-dasharray:none;stroke-opacity:1"
       id="path8861"
       inkscape:connector-curvature="0" /><path
       d="m 139.5,417.54 h 22.83"
       style="fill:none;stroke:#ffffff;stroke-width:2.51999998;stroke-linecap:round;stroke-linejoin:round;stroke-miterlimit:10;stroke-dasharray:none;stroke-opacity:1"
       id="path8863"
       inkscape:connector-curvature="0" /><path
       d="m 139.5,412.62 h 22.83"
       style="fill:none;stroke:#ffffff;stroke-width:2.51999998;stroke-linecap:round;stroke-linejoin:round;stroke-miterlimit:10;stroke-dasharray:none;stroke-opacity:1"
       id="path8865"
       inkscape:connector-curvature="0" /><path
       d="m 139.5,407.7 h 22.83"
       style="fill:none;stroke:#ffffff;stroke-width:2.51999998;stroke-linecap:round;stroke-linejoin:round;stroke-miterlimit:10;stroke-dasharray:none;stroke-opacity:1"
       id="path8867"
       inkscape:connector-curvature="0" /><path
       d="m 139.5,402.66 h 22.83"
       style="fill:none;stroke:#ffffff;stroke-width:2.51999998;stroke-linecap:round;stroke-linejoin:round;stroke-miterlimit:10;stroke-dasharray:none;stroke-opacity:1"
       id="path8869"
       inkscape:connector-curvature="0" /><path
       d="m 139.5,427.5 h 22.83"
       style="fill:none;stroke:#ffffff;stroke-width:2.51999998;stroke-linecap:round;stroke-linejoin:round;stroke-miterlimit:10;stroke-dasharray:none;stroke-opacity:1"
       id="path8871"
       inkscape:connector-curvature="0" /><path
       d="m 139.5,432.42 h 10.84"
       style="fill:none;stroke:#ffffff;stroke-width:2.51999998;stroke-linecap:round;stroke-linejoin:round;stroke-miterlimit:10;stroke-dasharray:none;stroke-opacity:1"
       id="path8873"
       inkscape:connector-curvature="0" /><g
       id="g8875"><g
         id="g8877"
         clip-path="url(#clipPath8881)"><path
           d="m 177.62,451.06 -16.75,-17.41 -5.37,-1.5 1.29,5.42 16.75,17.42 z"
           style="fill:none;stroke:#ffffff;stroke-width:2.5;stroke-linecap:round;stroke-linejoin:round;stroke-miterlimit:10;stroke-dasharray:none;stroke-opacity:1"
           id="path8883"
           inkscape:connector-curvature="0" /></g></g><g
       id="g8885"><g
         id="g8887"
         clip-path="url(#clipPath8891)"><text
           transform="matrix(1,0,0,-1,309.62,449.57)"
           style="font-variant:normal;font-weight:normal;font-size:12px;font-family:Calibri;-inkscape-font-specification:Calibri;writing-mode:lr-tb;fill:#000000;fill-opacity:1;fill-rule:nonzero;stroke:none"
           id="text8895"><tspan
             x="0 6.3600001 12.108 18.468 21.108 26.856001 29.615999 38.028 43.548 48.827999 53.52 56.375999 62.723999 68.699997 71.363998 76.056 82.391998 88.139999 92.232002 98.208 104.58 107.1 109.86 116.208"
             y="0"
             sodipodi:role="line"
             id="tspan8893">Can always be shared in </tspan></text>
</g></g><g
       id="g8897"><g
         id="g8899"
         clip-path="url(#clipPath8903)"><text
           transform="matrix(1,0,0,-1,309.62,435.17)"
           style="font-variant:normal;font-weight:normal;font-size:12px;font-family:Calibri;-inkscape-font-specification:Calibri;writing-mode:lr-tb;fill:#000000;fill-opacity:1;fill-rule:nonzero;stroke:none"
           id="text8907"><tspan
             x="0 5.7480001 8.5080004 14.16 18.228001 24.204 30.216 36.563999 39.084 46.883999 53.832001 56.712002 60.792 66.767998 73.139999 79.463997 84.155998 86.916 90.900002 97.223999 101.448 106.884 109.248 114.888 118.956"
             y="0"
             sodipodi:role="line"
             id="tspan8905">a green OA repository at </tspan></text>
</g></g><g
       id="g8909"><g
         id="g8911"
         clip-path="url(#clipPath8915)"><text
           transform="matrix(1,0,0,-1,309.62,420.77)"
           style="font-variant:normal;font-weight:normal;font-size:12px;font-family:Calibri;-inkscape-font-specification:Calibri;writing-mode:lr-tb;fill:#000000;fill-opacity:1;fill-rule:nonzero;stroke:none"
           id="text8919"><tspan
             x="0 5.7480001 11.88 17.316 19.92 23.988001 26.747999 36.335999"
             y="0"
             sodipodi:role="line"
             id="tspan8917">any time</tspan></text>
</g></g><g
       id="g8921"><g
         id="g8923"
         clip-path="url(#clipPath8927)"><text
           transform="matrix(1,0,0,-1,309.62,167.09)"
           style="font-variant:normal;font-weight:normal;font-size:12.02400017px;font-family:Calibri;-inkscape-font-specification:Calibri;writing-mode:lr-tb;fill:#000000;fill-opacity:1;fill-rule:nonzero;stroke:none"
           id="text8931"><tspan
             x="0 6.3606958 12.120192 18.468864 21.114143 27.462816 32.1642 38.476799 44.236298 47.001816 49.767338 55.214207 57.703175 64.039825 70.412544 73.178062 78.576843 81.222122 87.570793 93.558746"
             y="0"
             sodipodi:role="line"
             id="tspan8929">Can usually only be </tspan></text>
</g></g><g
       id="g8933"><g
         id="g8935"
         clip-path="url(#clipPath8939)"><text
           transform="matrix(1,0,0,-1,309.62,152.66)"
           style="font-variant:normal;font-weight:normal;font-size:12px;font-family:Calibri;-inkscape-font-specification:Calibri;writing-mode:lr-tb;fill:#000000;fill-opacity:1;fill-rule:nonzero;stroke:none"
           id="text8943"><tspan
             x="0 4.6919999 11.028 16.775999 20.868 26.844 33.216 35.736 38.495998 42.203999 44.844002 51.192001 57.540001 63.888 66.648003 69.407997 74.099998 80.328003 86.304001 92.568001 94.968002 101.316 106.752 109.356 115.104"
             y="0"
             sodipodi:role="line"
             id="tspan8941">shared if published by a </tspan></text>
</g></g><g
       id="g8945"><g
         id="g8947"
         clip-path="url(#clipPath8951)"><text
           transform="matrix(1,0,0,-1,309.62,138.26)"
           style="font-variant:normal;font-weight:normal;font-size:12px;font-family:Calibri;-inkscape-font-specification:Calibri;writing-mode:lr-tb;fill:#000000;fill-opacity:1;fill-rule:nonzero;stroke:none"
           id="text8955"><tspan
             x="0 5.52 11.844 14.604 20.988001 23.628 31.427999 38.375999 41.256001 47.580002 51.804001 54.444 60.563999 66 72.300003 76.512001 79.272003 85.620003"
             y="0"
             sodipodi:role="line"
             id="tspan8953">gold OA or hybrid </tspan></text>
</g></g><g
       id="g8957"><g
         id="g8959"
         clip-path="url(#clipPath8963)"><text
           transform="matrix(1,0,0,-1,309.62,123.86)"
           style="font-variant:normal;font-weight:normal;font-size:12px;font-family:Calibri;-inkscape-font-specification:Calibri;writing-mode:lr-tb;fill:#000000;fill-opacity:1;fill-rule:nonzero;stroke:none"
           id="text8967"><tspan
             x="0 2.868 9.2279997 15.576 19.764 26.124001 31.872"
             y="0"
             sodipodi:role="line"
             id="tspan8965">journal</tspan></text>
</g></g><g
       id="g8969"><g
         id="g8971"
         clip-path="url(#clipPath8975)"><text
           transform="matrix(1,0,0,-1,199.34,417.89)"
           style="font-variant:normal;font-weight:normal;font-size:12px;font-family:Calibri;-inkscape-font-specification:Calibri;writing-mode:lr-tb;fill:#000000;fill-opacity:1;fill-rule:nonzero;stroke:none"
           id="text8979"><tspan
             x="0 10.2 16.524 20.747999 26.148001 28.896 31.656 38.004002 40.523998 46.872002 50.832001 57.155998 62.807999 66.912003 72.888 77.580002"
             y="0"
             sodipodi:role="line"
             id="tspan8977">Work in progress</tspan></text>
</g></g><g
       id="g8981"><g
         id="g8983"
         clip-path="url(#clipPath8987)"><text
           transform="matrix(1,0,0,-1,199.34,403.49)"
           style="font-variant:normal;font-weight:normal;font-size:12px;font-family:Calibri;-inkscape-font-specification:Calibri;writing-mode:lr-tb;fill:#000000;fill-opacity:1;fill-rule:nonzero;stroke:none"
           id="text8991"><tspan
             x="0 5.5079999 11.868 18.216 27.804001 30.563999 34.535999 38.375999 44.352001 50.616001 53.015999 58.296001 64.272003 68.255997 72.947998 75.708 82.031998"
             y="0"
             sodipodi:role="line"
             id="tspan8989">Submitted version</tspan></text>
</g></g><path
       d="M 115.33,286.95 C 78.734,267.16 65.635,222.38 86.074,186.94 c 4.423,-7.67 10.229,-14.51 17.146,-20.19 v 0 l 12.66,4.22 -0.06,13.69 v 0 c -22.027,19.28 -23.536,51.97 -3.37,73.02 3.98,4.15 8.63,7.65 13.79,10.36 z"
       style="fill:#008300;fill-opacity:1;fill-rule:evenodd;stroke:none"
       id="path8993"
       inkscape:connector-curvature="0" /></g></svg>